<svg width="512" height="512" viewBox="0 0 512 512" fill="none" xmlns="http://www.w3.org/2000/svg">
  <rect width="512" height="512" rx="120" fill="#10b981"/>
  <path d="M256 128C200 128 156 172 156 228C156 284 200 328 256 328C312 328 356 284 356 228C356 172 312 128 256 128Z" fill="white"/>
  <path d="M200 384L256 340L312 384V420H200V384Z" fill="white"/>
  <circle cx="220" cy="200" r="8" fill="#10b981"/>
  <circle cx="292" cy="200" r="8" fill="#10b981"/>
  <path d="M240 240C240 250 246 256 256 256C266 256 272 250 272 240" stroke="#10b981" stroke-width="4" stroke-linecap="round"/>
</svg>

